<?xml version="1.0" standalone="no"?>
<!DOCTYPE svg PUBLIC "-//W3C//DTD SVG 20010904//EN"
 "http://www.w3.org/TR/2001/REC-SVG-20010904/DTD/svg10.dtd">
<svg version="1.0" xmlns="http://www.w3.org/2000/svg"
 width="512.000000pt" height="512.000000pt" viewBox="0 0 512.000000 512.000000"
 preserveAspectRatio="xMidYMid meet">

<g transform="translate(0.000000,512.000000) scale(0.100000,-0.100000)"
fill="#000000" stroke="none">
<path d="M2440 4782 c-36 -10 -89 -31 -117 -47 -29 -17 -335 -259 -680 -540
l-627 -510 -305 -5 c-304 -5 -306 -5 -361 -31 -70 -33 -126 -89 -159 -159
l-26 -55 -3 -1297 c-3 -1429 -5 -1371 59 -1505 44 -93 159 -208 252 -252 132
-63 72 -61 1527 -61 1452 0 1395 -2 1525 60 76 36 179 128 225 200 18 27 44
82 58 122 26 72 27 76 30 406 l4 332 261 0 c233 0 266 2 302 19 90 41 105 83
105 301 0 218 -15 260 -105 301 -36 17 -69 19 -302 19 l-263 0 0 293 c0 160
-5 321 -11 357 -11 70 -42 147 -91 223 l-31 48 32 44 c107 149 126 333 51 490
-19 40 -161 223 -435 560 -223 275 -430 525 -460 556 -65 67 -151 115 -242
134 -87 19 -132 18 -213 -3z m255 -175 c28 -14 69 -45 92 -69 89 -93 847
-1036 867 -1078 16 -35 21 -65 21 -130 0 -86 -17 -137 -68 -205 -15 -20 -15
-20 -54 2 -84 47 -162 65 -305 71 l-137 5 -6 61 c-12 117 31 253 115 359 22
27 40 55 40 61 0 17 -20 43 -198 264 -109 132 -171 202 -184 202 -10 0 -46
-14 -80 -31 -182 -92 -378 -68 -539 67 -23 19 -49 34 -59 34 -10 0 -301 -230
-645 -510 l-627 -510 -130 0 -129 0 83 68 c46 37 362 295 703 572 341 277 685
558 765 623 198 162 231 178 350 173 57 -2 87 -9 125 -29z m-405 -625 c47 -23
119 -49 160 -58 97 -21 231 -14 319 16 35 11 69 19 76 16 6 -2 60 -63 118
-135 l106 -131 -44 -87 c-55 -109 -80 -225 -72 -330 l5 -73 -890 0 c-490 0
-889 2 -887 4 29 29 1015 825 1019 823 3 -1 43 -21 90 -45z m-1491 -475 c-9
-7 -93 -75 -188 -152 -95 -77 -177 -142 -182 -143 -5 -2 -25 8 -44 23 -93 70
-86 194 14 262 32 22 43 23 225 23 152 -1 188 -3 175 -13z m-433 -444 c36 -17
138 -18 1529 -23 l1490 -5 67 -34 c82 -41 159 -119 196 -198 l27 -58 3 -332 3
-333 -365 0 -366 0 0 188 c0 158 -3 192 -18 222 -22 46 -79 75 -129 65 -40 -7
-38 -5 -485 -433 -329 -315 -340 -329 -318 -397 15 -45 731 -733 786 -754 31
-13 42 -13 77 0 76 27 82 43 85 270 l3 199 365 0 365 0 -3 -327 c-3 -320 -4
-330 -27 -388 -33 -83 -133 -183 -216 -216 l-60 -24 -1380 0 -1380 0 -67 34
c-82 41 -153 113 -194 196 l-29 60 -3 1153 c-1 633 -1 1152 2 1152 2 0 21 -8
42 -17z m2422 -936 l2 -207 762 0 c694 0 763 -1 780 -17 16 -14 18 -33 18
-140 0 -110 -2 -125 -20 -143 -20 -20 -33 -20 -780 -20 l-760 0 0 -205 c0
-179 -2 -206 -16 -212 -11 -4 -95 74 -300 278 -156 156 -284 291 -284 299 0
21 562 581 580 578 13 -3 15 -36 18 -211z"/>
<path d="M2490 3658 c-48 -25 -90 -89 -90 -138 0 -14 10 -46 23 -70 24 -48 88
-90 137 -90 14 0 46 10 70 23 48 24 90 88 90 137 0 49 -42 113 -90 138 -24 12
-56 22 -70 22 -14 0 -46 -10 -70 -22z"/>
</g>
</svg>
