<?xml version="1.0" encoding="UTF-8" standalone="no"?>
<!-- Created with Inkscape (http://www.inkscape.org/) -->

<svg
   version="1.1"
   id="svg3909"
   xml:space="preserve"
   width="682.66669"
   height="682.66669"
   viewBox="0 0 682.66669 682.66669"
   xmlns="http://www.w3.org/2000/svg"
   xmlns:svg="http://www.w3.org/2000/svg"><defs
     id="defs3913"><clipPath
       clipPathUnits="userSpaceOnUse"
       id="clipPath3923"><path
         d="M 0,512 H 512 V 0 H 0 Z"
         id="path3921" /></clipPath></defs><g
     id="g3915"
     transform="matrix(1.3333333,0,0,-1.3333333,0,682.66667)"><g
       id="g3917"><g
         id="g3919"
         clip-path="url(#clipPath3923)"><g
           id="g3925"
           transform="translate(456.9691,104.8608)"><path
             d="m 0,0 c 27.744,39.712 44.031,88.021 44.031,140.139 0,135.31 -109.69,245 -245,245 -135.31,0 -245,-109.69 -245,-245 0,-52.118 16.287,-100.427 44.031,-140.139 z"
             style="fill:#ffdd40;fill-opacity:1;fill-rule:nonzero;stroke:none"
             id="path3927" /></g><g
           id="g3929"
           transform="translate(456,270)"><path
             d="m 0,0 c 0,-110.457 -89.543,-200 -200,-200 -110.457,0 -200,89.543 -200,200 0,110.457 89.543,200 200,200 C -89.543,200 0,110.457 0,0"
             style="fill:#ffc839;fill-opacity:1;fill-rule:nonzero;stroke:none"
             id="path3931" /></g><g
           id="g3933"
           transform="translate(456.949,104.8608)"><path
             d="m 0,0 c -8.256,22.709 -16.99,42.685 -24.722,51.911 -0.904,1.079 -1.795,2.019 -2.669,2.791 -6.623,5.848 -19.39,11.382 -34.352,16.323 v 0 h -278.412 c -14.962,-4.941 -27.729,-10.475 -34.352,-16.323 -0.874,-0.772 -1.765,-1.712 -2.669,-2.791 -7.731,-9.226 -16.466,-29.202 -24.722,-51.911 -10e-4,-0.009 -10e-4,-0.018 -0.002,-0.026 v 0 c 16.027,-22.934 35.879,-42.995 58.629,-59.263 h 284.644 c 22.75,16.268 42.602,36.329 58.629,59.263 v 0 C 0.001,-0.018 0.001,-0.009 0,0"
             style="fill:#f9efdc;fill-opacity:1;fill-rule:nonzero;stroke:none"
             id="path3935" /></g><g
           id="g3937"
           transform="translate(395.2063,175.8855)"><path
             d="m 0,0 c -37.929,12.525 -89.967,21.232 -91.82,21.54 h -94.772 c -1.853,-0.308 -53.892,-9.015 -91.821,-21.54 0.004,-0.013 27.153,-89.732 -3.115,-130.304 0,-0.003 0,-0.007 0,-0.01 38.218,-27.329 84.62,-43.936 134.822,-45.447 l 7.5,7.599 7.5,-7.599 c 50.201,1.511 96.603,18.118 134.822,45.447 0,0.003 0,0.007 0,0.01 C -27.153,-89.732 -0.004,-0.012 0,0"
             style="fill:#3c5082;fill-opacity:1;fill-rule:nonzero;stroke:none"
             id="path3939" /></g><g
           id="g3941"
           transform="translate(263.5,197.425)"><path
             d="m 0,0 h -15 v -197.3 c 0.534,-0.016 1.068,-0.035 1.602,-0.048 0.461,-0.011 0.921,-0.024 1.382,-0.032 1.502,-0.027 3.007,-0.045 4.516,-0.045 1.509,0 3.014,0.018 4.516,0.045 0.461,0.008 0.921,0.021 1.382,0.032 0.534,0.013 1.068,0.032 1.602,0.048 z"
             style="fill:#222d5b;fill-opacity:1;fill-rule:nonzero;stroke:none"
             id="path3943" /></g><g
           id="g3945"
           transform="translate(91.0702,85.1572)"><path
             d="m 0,0 v -21.327 c 7.157,-6.519 14.704,-12.617 22.599,-18.262 L 10.564,1.515 C 8.813,7.494 0,6.23 0,0"
             style="fill:#efe1cb;fill-opacity:1;fill-rule:nonzero;stroke:none"
             id="path3947" /></g><g
           id="g3949"
           transform="translate(420.9298,85.1572)"><path
             d="m 0,0 v -21.327 c -7.157,-6.519 -14.704,-12.617 -22.599,-18.262 L -10.564,1.515 C -8.813,7.494 0,6.23 0,0"
             style="fill:#efe1cb;fill-opacity:1;fill-rule:nonzero;stroke:none"
             id="path3951" /></g><g
           id="g3953"
           transform="translate(208.614,290.7607)"><path
             d="m 0,0 v -93.336 c 0,0 19.021,-33.261 47.17,-33.261 0.073,0 0.143,0.005 0.216,0.005 28.031,0.103 47.386,33.256 47.386,33.256 V 0 Z"
             style="fill:#ce846a;fill-opacity:1;fill-rule:nonzero;stroke:none"
             id="path3955" /></g><g
           id="g3957"
           transform="translate(208.614,291.2656)"><path
             d="m 0,0 v -93.841 c 94.723,0 94.772,53.401 94.772,53.401 V 0 Z"
             style="fill:#c3785c;fill-opacity:1;fill-rule:nonzero;stroke:none"
             id="path3959" /></g><g
           id="g3961"
           transform="translate(303.386,212.3908)"><path
             d="m 0,0 -47.386,-48.222 c 0,0 18.328,-33.146 30.188,-33.146 7.034,0 17.106,22.383 24.137,40.597 C 12.281,-26.931 9.633,-11.283 0,0 Z"
             style="fill:#fcf9f0;fill-opacity:1;fill-rule:nonzero;stroke:none"
             id="path3963" /></g><g
           id="g3965"
           transform="translate(208.614,212.3908)"><path
             d="m 0,0 47.386,-48.222 c 0,0 -18.328,-33.146 -30.188,-33.146 -7.034,0 -17.106,22.383 -24.137,40.597 C -12.281,-26.931 -9.633,-11.283 0,0 Z"
             style="fill:#fcf9f0;fill-opacity:1;fill-rule:nonzero;stroke:none"
             id="path3967" /></g><g
           id="g3969"
           transform="translate(333.4799,465.9275)"><path
             d="m 0,0 c 0,0 -0.921,27.711 -14.708,34.073 -13.787,6.361 -28.523,12 -62.772,12 -34.249,0 -48.985,-5.639 -62.772,-12 C -154.039,27.711 -154.96,0 -154.96,0 c -17.175,-18.715 -27.663,-43.666 -27.663,-71.07 v -30.076 H 27.663 V -71.07 C 27.663,-43.666 17.176,-18.715 0,0"
             style="fill:#2d3c6b;fill-opacity:1;fill-rule:nonzero;stroke:none"
             id="path3971" /></g><g
           id="g3973"
           transform="translate(225.46,432.3979)"><path
             d="M 0,0 C -27.624,9.696 -37.396,67.237 -8.841,75.912 -18.364,73.714 -25.416,70.747 -32.232,67.602 -46.019,61.24 -46.94,33.53 -46.94,33.53 -64.115,14.815 -74.603,-10.137 -74.603,-37.541 V -67.616 H 0 Z"
             style="fill:#222d5b;fill-opacity:1;fill-rule:nonzero;stroke:none"
             id="path3975" /></g><g
           id="g3977"
           transform="translate(180.9425,352.4327)"><path
             d="M 0,0 C 0,0 -10.385,25.285 -28.897,19.415 -47.41,13.546 -28.45,-41.248 7.676,-44.701 Z"
             style="fill:#c3785c;fill-opacity:1;fill-rule:nonzero;stroke:none"
             id="path3979" /></g><g
           id="g3981"
           transform="translate(331.0575,352.4327)"><path
             d="M 0,0 C 0,0 10.385,25.285 28.897,19.415 47.41,13.546 28.45,-41.248 -7.676,-44.701 Z"
             style="fill:#ce846a;fill-opacity:1;fill-rule:nonzero;stroke:none"
             id="path3983" /></g><g
           id="g3985"
           transform="translate(327.0493,387.2455)"><path
             d="m 0,0 c -3.509,10.287 -9.219,24.496 -16.225,32.717 -3.978,3.853 -8.145,7.046 -12.399,9.103 -8.195,3.963 -15.758,4.069 -22.16,2.497 -13.315,-3.269 -27.216,-3.269 -40.53,0 -6.402,1.572 -13.966,1.466 -22.161,-2.497 -4.253,-2.057 -8.421,-5.25 -12.399,-9.103 -7.006,-8.221 -12.716,-22.43 -16.225,-32.717 -2.762,-8.097 -8.72,-14.703 -16.484,-18.295 v 0 c -0.031,-1.23 -0.063,-2.46 -0.063,-3.705 0,-64.505 39.218,-140.155 87.597,-140.155 48.378,0 87.597,75.65 87.597,140.155 0,1.245 -0.033,2.475 -0.064,3.705 C 8.72,-14.703 2.762,-8.097 0,0"
             style="fill:#dd9883;fill-opacity:1;fill-rule:nonzero;stroke:none"
             id="path3987" /></g><g
           id="g3989"
           transform="translate(208.4029,365.2456)"><path
             d="M 0,0 C 0,25.925 6.339,48.917 17.057,67.152 13.302,66.84 9.318,65.825 5.172,63.82 0.918,61.763 -3.249,58.57 -7.227,54.717 -14.233,46.496 -19.943,32.287 -23.452,22 -26.214,13.903 -32.172,7.297 -39.937,3.705 -39.968,2.475 -40,1.245 -40,0 c 0,-64.505 39.219,-140.155 87.597,-140.155 6.881,0 13.576,1.534 20,4.346 C 28.856,-118.856 0,-55.33 0,0"
             style="fill:#ce846a;fill-opacity:1;fill-rule:nonzero;stroke:none"
             id="path3991" /></g><g
           id="g3993"
           transform="translate(242.0132,319.5534)"><path
             d="m 0,0 8.436,13.441 c 2.569,4.093 8.533,4.093 11.102,0 L 27.974,0 c 2.739,-4.365 -0.398,-10.038 -5.552,-10.038 H 5.551 C 0.398,-10.038 -2.739,-4.365 0,0"
             style="fill:#c3785c;fill-opacity:1;fill-rule:nonzero;stroke:none"
             id="path3995" /></g><g
           id="g3997"
           transform="translate(235.3836,271.1303)"><path
             d="m 0,0 h 41.233 c 4.11,3.622 7.258,8.309 9.01,13.631 1.584,4.811 -2.069,9.754 -7.134,9.754 H -1.876 c -5.065,0 -8.718,-4.943 -7.134,-9.754 C -7.258,8.309 -4.111,3.622 0,0"
             style="fill:#222d5b;fill-opacity:1;fill-rule:nonzero;stroke:none"
             id="path3999" /></g><g
           id="g4001"
           transform="translate(276.6164,271.1303)"><path
             d="m 0,0 c -5.493,-4.849 -12.714,-7.798 -20.616,-7.798 -7.903,0 -15.124,2.949 -20.617,7.798 5.5,4.849 12.714,7.798 20.617,7.798 C -12.714,7.798 -5.5,4.849 0,0"
             style="fill:#ff4155;fill-opacity:1;fill-rule:nonzero;stroke:none"
             id="path4003" /></g><g
           id="g4005"
           transform="translate(310.9991,349.9146)"><path
             d="m 0,0 c 0.043,3.495 -1.371,7.004 -4.242,9.539 -4.675,4.128 -11.839,4.128 -16.514,0 -2.871,-2.535 -4.285,-6.044 -4.242,-9.539 0.055,-4.538 5.629,-6.716 8.838,-3.507 v 0 c 2.022,2.022 5.3,2.022 7.322,0 v 0 C -5.629,-6.716 -0.055,-4.538 0,0"
             style="fill:#222d5b;fill-opacity:1;fill-rule:nonzero;stroke:none"
             id="path4007" /></g><g
           id="g4009"
           transform="translate(201.0009,349.9146)"><path
             d="m 0,0 c -0.043,3.495 1.371,7.004 4.242,9.539 4.675,4.128 11.839,4.128 16.514,0 C 23.627,7.004 25.041,3.495 24.998,0 24.943,-4.538 19.369,-6.716 16.16,-3.507 v 0 c -2.022,2.022 -5.3,2.022 -7.322,0 v 0 C 5.629,-6.716 0.055,-4.538 0,0"
             style="fill:#222d5b;fill-opacity:1;fill-rule:nonzero;stroke:none"
             id="path4011" /></g><g
           id="g4013"
           transform="translate(223.5,373.0319)"><path
             d="m 0,0 h -20 c -4.142,0 -7.5,3.358 -7.5,7.5 0,4.142 3.358,7.5 7.5,7.5 H 0 C 4.142,15 7.5,11.642 7.5,7.5 7.5,3.358 4.142,0 0,0"
             style="fill:#222d5b;fill-opacity:1;fill-rule:nonzero;stroke:none"
             id="path4015" /></g><g
           id="g4017"
           transform="translate(308.5,373.0319)"><path
             d="m 0,0 h -20 c -4.142,0 -7.5,3.358 -7.5,7.5 0,4.142 3.358,7.5 7.5,7.5 H 0 C 4.142,15 7.5,11.642 7.5,7.5 7.5,3.358 4.142,0 0,0"
             style="fill:#222d5b;fill-opacity:1;fill-rule:nonzero;stroke:none"
             id="path4019" /></g><g
           id="g4021"
           transform="translate(308.4847,148.4095)"><path
             d="m 0,0 -1.354,-3.315 c -1.785,-4.372 -1.785,-9.27 0,-13.642 L 0,-20.272 c 2.747,-6.726 1.192,-14.443 -3.945,-19.579 v -10e-4 c -7.047,-7.046 -18.471,-7.046 -25.517,0 l -29.715,29.716 29.715,29.715 c 7.046,7.046 18.47,7.046 25.517,0 v 0 C 1.192,14.442 2.747,6.726 0,0"
             style="fill:#e80054;fill-opacity:1;fill-rule:nonzero;stroke:none"
             id="path4023" /></g><g
           id="g4025"
           transform="translate(203.5152,148.4095)"><path
             d="m 0,0 1.354,-3.315 c 1.785,-4.372 1.785,-9.27 0,-13.642 L 0,-20.272 c -2.747,-6.726 -1.191,-14.443 3.945,-19.579 v -10e-4 c 7.047,-7.046 18.471,-7.046 25.517,0 l 29.715,29.716 -29.715,29.715 c -7.046,7.046 -18.47,7.046 -25.517,0 v 0 C -1.191,14.442 -2.747,6.726 0,0"
             style="fill:#e80054;fill-opacity:1;fill-rule:nonzero;stroke:none"
             id="path4027" /></g><g
           id="g4029"
           transform="translate(256,112.3782)"><path
             d="m 0,0 v 0 c -8.581,0 -15.537,6.956 -15.537,15.537 v 20.716 c 0,8.581 6.956,15.538 15.537,15.538 v 0 c 8.581,0 15.537,-6.957 15.537,-15.538 V 15.537 C 15.537,6.956 8.581,0 0,0"
             style="fill:#ff4155;fill-opacity:1;fill-rule:nonzero;stroke:none"
             id="path4031" /></g><g
           id="g4033"
           transform="translate(147.4328,184.6292)"><path
             d="m 0,0 -0.001,0.001 c -10.42,-2.618 -20.986,-5.557 -30.638,-8.745 0.004,-0.013 27.153,-89.732 -3.116,-130.304 0,-0.003 0,-0.006 0,-0.01 38.219,-27.329 84.621,-43.936 134.822,-45.446 C -9.305,-140.528 0,0 0,0"
             style="fill:#2d3c6b;fill-opacity:1;fill-rule:nonzero;stroke:none"
             id="path4035" /></g></g></g></g></svg>
